HIERARCHY
ROOT Hips
{
	OFFSET 0.00000 0.00000 0.00000
	CHANNELS 6 Xposition Yposition Zposition Zrotation Yrotation Xrotation 
	JOINT LHipJoint
	{
		OFFSET 0 0 0
		CHANNELS 3 Zrotation Yrotation Xrotation
		JOINT LeftUpLeg
		{
			OFFSET 1.30186 -1.90722 0.65024
			CHANNELS 3 Zrotation Yrotation Xrotation
			JOINT LeftLeg
			{
				OFFSET 2.56413 -7.04489 0.00000
				CHANNELS 3 Zrotation Yrotation Xrotation
				JOINT LeftFoot
				{
					OFFSET 2.79321 -7.67428 0.00000
					CHANNELS 3 Zrotation Yrotation Xrotation
					JOINT LeftToeBase
					{
						OFFSET 0.15723 -0.43198 2.08537
						CHANNELS 3 Zrotation Yrotation Xrotation
						End Site
						{
							OFFSET 0.00000 -0.00000 1.07411
						}
					}
				}
			}
		}
	}
	JOINT RHipJoint
	{
		OFFSET 0 0 0
		CHANNELS 3 Zrotation Yrotation Xrotation
		JOINT RightUpLeg
		{
			OFFSET -1.28627 -1.90723 0.65024
			CHANNELS 3 Zrotation Yrotation Xrotation
			JOINT RightLeg
			{
				OFFSET -2.56567 -7.04913 0.00000
				CHANNELS 3 Zrotation Yrotation Xrotation
				JOINT RightFoot
				{
					OFFSET -2.75597 -7.57198 0.00000
					CHANNELS 3 Zrotation Yrotation Xrotation
					JOINT RightToeBase
					{
						OFFSET -0.17500 -0.48081 2.22901
						CHANNELS 3 Zrotation Yrotation Xrotation
						End Site
						{
							OFFSET -0.00000 -0.00000 1.14762
						}
					}
				}
			}
		}
	}
	JOINT LowerBack
	{
		OFFSET 0 0 0
		CHANNELS 3 Zrotation Yrotation Xrotation
		JOINT Spine
		{
			OFFSET -0.04522 2.07467 -0.16566
			CHANNELS 3 Zrotation Yrotation Xrotation
			JOINT Spine1
			{
				OFFSET -0.01178 2.08825 -0.05393
				CHANNELS 3 Zrotation Yrotation Xrotation
				JOINT Neck
				{
					OFFSET 0 0 0
					CHANNELS 3 Zrotation Yrotation Xrotation
					JOINT Neck1
					{
						OFFSET -0.05182 1.80489 0.16014
						CHANNELS 3 Zrotation Yrotation Xrotation
						JOINT Head
						{
							OFFSET 0.14739 1.78840 -0.33342
							CHANNELS 3 Zrotation Yrotation Xrotation
							End Site
							{
								OFFSET 0.04364 1.83899 -0.13460
							}
						}
					}
				}
				JOINT LeftShoulder
				{
					OFFSET 0 0 0
					CHANNELS 3 Zrotation Yrotation Xrotation
					JOINT LeftArm
					{
						OFFSET 3.01264 1.29090 -0.06579
						CHANNELS 3 Zrotation Yrotation Xrotation
						JOINT LeftForeArm
						{
							OFFSET 5.55680 -0.00000 0.00000
							CHANNELS 3 Zrotation Yrotation Xrotation
							JOINT LeftHand
							{
								OFFSET 3.63979 -0.00000 -0.00000
								CHANNELS 3 Zrotation Yrotation Xrotation
								JOINT LeftFingerBase
								{
									OFFSET 0 0 0
									CHANNELS 3 Zrotation Yrotation Xrotation
									JOINT LeftHandIndex1
									{
										OFFSET 0.56942 -0.00000 -0.00000
										CHANNELS 3 Zrotation Yrotation Xrotation
										End Site
										{
											OFFSET 0.45908 -0.00000 -0.00000
										}
									}
								}
								JOINT LThumb
								{
									OFFSET 0 0 0
									CHANNELS 3 Zrotation Yrotation Xrotation
									End Site
									{
										OFFSET 0.46609 -0.00000 0.46609
									}
								}
							}
						}
					}
				}
				JOINT RightShoulder
				{
					OFFSET 0 0 0
					CHANNELS 3 Zrotation Yrotation Xrotation
					JOINT RightArm
					{
						OFFSET -3.15796 1.37283 -0.36748
						CHANNELS 3 Zrotation Yrotation Xrotation
						JOINT RightForeArm
						{
							OFFSET -5.34339 -0.00000 0.00000
							CHANNELS 3 Zrotation Yrotation Xrotation
							JOINT RightHand
							{
								OFFSET -3.65101 -0.00000 -0.00000
								CHANNELS 3 Zrotation Yrotation Xrotation
								JOINT RightFingerBase
								{
									OFFSET 0 0 0
									CHANNELS 3 Zrotation Yrotation Xrotation
									JOINT RightHandIndex1
									{
										OFFSET -0.69425 -0.00000 -0.00000
										CHANNELS 3 Zrotation Yrotation Xrotation
										End Site
										{
											OFFSET -0.55972 -0.00000 -0.00000
										}
									}
								}
								JOINT RThumb
								{
									OFFSET 0 0 0
									CHANNELS 3 Zrotation Yrotation Xrotation
									End Site
									{
										OFFSET -0.56827 -0.00000 0.56827
									}
								}
							}
						}
					}
				}
			}
		}
	}
}
MOTION
Frames: 11
Frame Time: 0.1
0.00 0.00 0.00 0 0 0 0 0 0 -21 0 0 0 0 0 0 0 0 0 0 0 0 0 0 21 0 0 0 0 0 0 0 0 0 0 0 0 0 0 0 0 0 0 0 0 0 0 -16 0 0 21 0 0 11 0 0 0 -8 0 0 0 0 0 0 0 0 0 0 0 0 0 0 0 0 0 0 0 0 8 0 0 0 0 0 0 0 0 0 0 0 0 0 0 0 0 0
0.00 0.00 0.00 0.4888 40.8807 3.2844 0.0000 0.0000 0.0000 -15.3316 -12.0567 0.7599 0.6558 5.1798 14.4220 0.5600 -3.1270 -13.4147 0.9708 -6.2730 -17.5785 0.0000 0.0000 0.0000 15.0142 15.4466 -2.2098 -1.0577 -6.5390 18.3565 -0.3274 -7.2496 -15.8238 -0.2974 -3.5066 9.6924 -6.3239 -0.6228 -4.3700 -1.3211 -0.4929 -0.7137 2.1543 -0.2735 1.7583 -15.9346 -16.0310 -1.1207 15.8169 -25.0622 24.2169 4.9325 -11.6515 12.3308 0.0000 0.0000 0.0000 -0.0000 0.0000 -0.0000 -0.0000 0.0000 -0.0000 -0.0000 -0.0000 0.0000 -0.0000 -0.0000 0.0000 -0.0000 0.0000 0.0000 0.0000 0.0000 0.0000 0.0000 0.0000 0.0000 65.7470 19.9017 -5.4702 -11.6515 19.2800 -1.9857 0.0000 0.0000 16.0080 -0.6230 36.0542 -0.3667 7.1250 -0.0000 -0.0000 17.5189 4.6240 19.7903
0.00 0.00 0.00 -1.4946 44.6806 0.3957 0.0000 0.0000 0.0000 -13.1262 -10.3230 -9.3929 2.4895 9.8188 28.3920 0.1694 -10.2017 -9.6499 0.3247 -3.6625 -10.1292 0.0000 0.0000 0.0000 16.0001 13.8316 -2.5394 -1.2294 -7.0318 19.8097 -0.3004 -8.0730 -16.2867 -0.2853 -3.4352 9.4927 -5.7240 0.7352 0.5938 -2.3286 0.9539 0.0392 0.8047 0.4920 -0.3457 -17.4297 -17.5510 0.0722 20.1053 -27.7079 19.7276 6.0983 -12.8882 11.9072 0.0000 0.0000 0.0000 -84.9503 2.7376 13.1830 17.9203 -28.0549 -4.5117 -0.0000 0.0000 -4.3200 22.1326 20.7395 8.1959 -7.1250 0.0000 -0.0000 -6.6001 52.0952 -1.1571 0.0000 0.0000 0.0000 61.9015 26.3832 -19.9117 -8.8003 14.8416 -1.1484 0.0000 0.0000 30.7921 -6.1904 31.3384 -3.2288 7.1250 -0.0000 -0.0000 14.3522 0.6542 14.9913
0.00 0.00 0.00 -5.7528 48.0397 -3.5499 0.0000 0.0000 0.0000 -11.7578 -6.4370 -20.2408 3.9107 12.0407 35.8760 0.8867 -2.4618 -17.1336 0.1260 -2.2884 -6.3035 0.0000 0.0000 0.0000 16.4777 11.5337 -3.4318 -1.2505 -7.0897 19.9814 -0.0555 -10.0823 -15.2226 -0.0326 -1.1661 3.2058 -4.0933 2.9782 5.6023 -3.1526 3.7062 1.3910 -1.2187 1.8765 -1.7505 -18.3193 -19.0867 0.8466 25.5159 -30.0547 13.5581 7.4543 -14.0434 11.2565 0.0000 0.0000 0.0000 -82.4759 1.5260 19.0415 23.7636 -34.9132 -7.5708 -0.0000 0.0000 -7.3986 25.5136 19.9674 9.2567 -7.1250 0.0000 -0.0000 -2.9704 51.8849 -0.5039 0.0000 0.0000 0.0000 52.2662 33.9426 -46.9930 -6.9929 11.9076 -0.7302 0.0000 0.0000 43.4225 -21.2640 20.7866 -7.8633 7.1250 -0.0000 -0.0000 4.6450 -7.8774 3.9780
0.00 0.00 0.00 -3.5064 52.2134 -1.7732 0.0000 0.0000 0.0000 -15.9099 -8.3210 -20.6656 3.6409 11.6666 34.5625 0.5892 -0.7603 -14.2600 0.0290 1.0996 3.0229 0.0000 0.0000 0.0000 11.7037 7.1780 -8.4592 -2.1138 -9.0993 26.1063 -0.3597 -6.5415 -15.5917 -0.0419 -1.3205 3.6311 -6.4875 3.3786 6.9851 -3.4087 4.0921 2.8158 -0.2265 2.0573 -1.1861 -16.9131 -20.5848 1.6705 26.1667 -31.2046 8.4107 7.2033 -14.8671 9.4381 -0.0000 -0.0000 0.0000 -81.8808 0.7025 21.1486 23.5193 -34.6517 -7.4314 -0.0000 0.0000 -7.4994 20.9521 19.8774 7.4177 -7.1250 0.0000 -0.0000 -7.5058 50.9925 -1.1135 -0.0000 -0.0000 0.0000 39.7684 33.3524 -77.0467 -6.2869 10.7399 -0.5915 0.0000 0.0000 55.4025 -24.9555 18.9627 -8.5992 7.1250 -0.0000 -0.0000 2.1087 -9.2352 1.7442
0.00 0.00 0.00 -5.7109 55.3508 -4.6030 0.0000 0.0000 0.0000 -15.9814 -8.1048 -22.7451 4.3683 12.6350 38.0172 0.4197 -4.9328 -11.5441 0.0034 -0.3766 -1.0347 0.0000 0.0000 0.0000 8.1024 5.8554 -16.9444 -5.0074 -13.3921 40.8545 -0.1459 1.3546 -6.8662 -0.1681 2.6415 -7.2823 -5.0050 3.4578 10.4840 -2.3280 4.2034 4.9186 -0.0810 2.1078 -0.9064 -19.9023 -21.1083 2.2602 28.9401 -31.0330 1.6436 8.4413 -15.2066 8.1423 -0.0000 -0.0000 0.0000 -79.8778 0.0963 20.8733 22.0313 -33.0123 -6.6029 -0.0000 0.0000 -4.0201 19.5949 20.5699 7.1292 -7.1250 0.0000 -0.0000 -9.0697 51.4770 -1.4569 -0.0000 -0.0000 0.0000 27.1483 23.8398 -79.3715 -5.7330 9.8161 -0.4927 0.0000 0.0000 44.6552 -20.0882 18.2472 -6.5326 7.1250 -0.0000 -0.0000 5.2238 -10.6990 4.1810
0.00 0.00 0.00 -3.0632 57.6862 -2.7525 0.0000 0.0000 0.0000 -18.3079 -8.9948 -23.4061 4.8144 13.1717 40.0146 0.3690 -7.0874 -11.1729 0.1087 2.1260 5.8539 0.0000 0.0000 0.0000 2.7889 6.5259 -20.2845 -6.1145 -14.5384 45.4395 -0.0913 2.6914 -5.4061 -0.3420 3.7579 -10.3965 -5.0002 2.6267 12.6272 -2.7743 3.0440 5.8722 -0.4853 1.5516 -0.9976 -18.7970 -20.5783 1.3768 27.1498 -29.0652 -2.0900 8.2682 -14.4099 6.1234 0.0000 0.0000 0.0000 -74.7508 3.9308 22.9703 22.8104 -33.8808 -7.0323 -0.0000 0.0000 -9.1092 22.1559 20.5158 8.1217 -7.1250 0.0000 -0.0000 -6.5071 51.8654 -1.1039 0.0000 0.0000 0.0000 24.6866 18.1576 -58.5141 -6.9672 11.8652 -0.7249 0.0000 0.0000 16.9386 -17.6846 15.5232 -4.8773 7.1250 -0.0000 -0.0000 6.6974 -13.8062 4.9402
0.00 0.00 0.00 -3.5017 59.2633 -2.5967 0.0000 0.0000 0.0000 -17.7030 -9.1710 -25.1659 5.4249 13.8469 42.6277 0.2940 -9.7492 -11.0466 0.1921 2.8227 7.7856 0.0000 0.0000 0.0000 0.8035 8.0875 -17.1265 -3.4785 -11.4320 33.7511 -0.0902 -11.6697 -17.7978 -0.5265 -4.6499 12.9127 -4.1761 1.3652 13.1520 -2.4847 1.4369 5.7837 -0.4400 0.7640 -1.3205 -20.8102 -19.9599 2.2252 26.7592 -28.2701 -2.4594 8.6641 -14.1069 5.9175 0.0000 0.0000 0.0000 -71.6648 8.4100 16.5027 21.3059 -32.1837 -6.2121 -0.0000 0.0000 -5.0518 21.9544 20.3203 7.9687 -7.1250 0.0000 -0.0000 -6.6483 51.6258 -1.0889 0.0000 0.0000 0.0000 23.8752 17.6317 -53.8737 -8.7006 14.6820 -1.1230 0.0000 0.0000 3.6811 -15.6207 16.7736 -4.6131 7.1250 -0.0000 -0.0000 8.1105 -12.7297 6.1878
0.00 0.00 0.00 -7.6798 57.8634 -7.5240 0.0000 0.0000 0.0000 -11.5818 -13.7279 -26.4259 8.5687 16.5220 54.5861 0.9498 1.9006 -19.1892 0.0715 -1.7247 -4.7454 0.0000 0.0000 0.0000 5.3995 7.4747 -15.5298 -2.1049 -9.0813 26.0501 0.5019 -12.9861 -8.8126 -0.0092 -0.6186 1.6999 -6.3684 2.9494 13.3139 -2.3697 3.3678 6.9256 0.6463 1.6714 -0.3476 -19.4672 -20.0949 4.0726 25.9588 -29.9975 5.0027 7.9723 -14.8151 7.9858 -0.0000 -0.0000 0.0000 -60.0403 8.5359 -12.7404 15.7653 -25.2014 -3.5454 -0.0000 0.0000 -12.6914 35.3999 26.6191 17.6624 -7.1250 0.0000 -0.0000 6.6156 61.4448 2.6551 -0.0000 -0.0000 0.0000 29.8934 25.6993 -78.1799 -6.2626 10.6995 -0.5870 0.0000 0.0000 32.5123 -24.0916 18.9057 -8.2437 7.1250 -0.0000 -0.0000 2.6632 -9.4332 2.1931
0.00 0.00 0.00 -7.9397 39.2742 -10.0947 0.0000 0.0000 0.0000 -18.1444 -10.0686 -27.6645 6.4717 14.8704 46.8468 0.6749 0.3710 -15.6625 0.6457 5.1405 14.3098 0.0000 0.0000 0.0000 10.7852 -2.3183 -30.4052 -8.3708 -16.3853 53.8875 0.9321 16.8303 7.4733 -0.0554 1.5195 -4.1795 -7.0594 6.9711 13.5698 -3.2148 8.4222 6.3242 -0.6992 4.1842 -1.3320 -18.1665 -19.7254 -1.2574 27.9147 -28.9500 3.6564 8.1215 -13.8518 8.4080 0.0000 -0.0000 0.0000 -61.6301 17.0487 -1.6166 23.7778 -34.9284 -7.5789 -0.0000 0.0000 -5.0933 12.6036 19.4443 4.2568 -7.1250 0.0000 -0.0000 -15.3834 49.2387 -1.6431 0.0000 -0.0000 0.0000 31.4910 27.9263 -66.8959 -6.3948 10.9190 -0.6118 0.0000 0.0000 21.6336 -20.2554 17.1436 -6.2081 7.1250 -0.0000 -0.0000 5.0493 -11.8325 3.9223
0.00 0.00 0.00 -8.0468 41.4859 -9.7557 0.0000 0.0000 0.0000 -11.6363 -8.3511 -24.0949 8.5111 16.4826 54.3836 1.6865 -4.2222 -23.5615 0.1442 -2.4470 -6.7428 0.0000 0.0000 0.0000 3.0689 7.6482 -12.1967 -0.8274 -5.8033 16.2149 1.6041 -25.9723 -25.3113 -2.4673 -9.7782 28.2614 -7.6060 5.0307 9.4769 -4.1129 6.1939 5.6010 -0.6193 3.0480 0.2507 -17.2343 -19.4028 0.6604 25.5601 -29.5594 9.1836 7.3574 -14.0758 9.4286 0.0000 -0.0000 0.0000 -48.6895 8.9622 -3.7854 22.9167 -33.9976 -7.0917 -0.0000 0.0000 -2.5439 19.1074 22.6334 7.5937 -7.1250 0.0000 -0.0000 -10.3222 53.4950 -2.1745 0.0000 -0.0000 0.0000 36.7600 23.7732 -48.2504 -7.6396 12.9670 -0.8695 0.0000 0.0000 21.8796 -17.2858 20.3516 -6.1769 7.1250 -0.0000 -0.0000 7.1605 -8.8833 6.0174
